<?xml version="1.0" standalone="no"?>
<!DOCTYPE svg PUBLIC "-//W3C//DTD SVG 20010904//EN"
 "http://www.w3.org/TR/2001/REC-SVG-20010904/DTD/svg10.dtd">
<svg version="1.0" xmlns="http://www.w3.org/2000/svg"
 width="1084.000000pt" height="1345.000000pt" viewBox="0 0 1084.000000 1345.000000"
 preserveAspectRatio="xMidYMid meet">

<g transform="translate(0.000000,1345.000000) scale(0.100000,-0.100000)"
fill="#000000" stroke="none">
<path d="M5130 12369 c-258 -21 -720 -95 -743 -118 -4 -4 25 -29 65 -57 693
-471 1417 -1114 1981 -1757 616 -702 1118 -1473 1471 -2257 l38 -85 15 40 c42
121 228 826 298 1135 135 596 234 1143 304 1689 34 261 33 285 -20 339 -96 98
-590 397 -954 577 -556 275 -961 406 -1470 476 -124 17 -214 22 -515 24 -201
2 -412 -1 -470 -6z"/>
<path d="M3890 12076 c-409 -157 -823 -388 -1173 -654 -590 -448 -1100 -1076
-1395 -1717 -121 -263 -277 -693 -259 -712 4 -3 83 31 176 76 1211 578 2518
912 3846 982 258 14 926 5 1170 -14 88 -7 162 -12 164 -10 21 15 -497 574
-789 851 -332 315 -591 535 -925 787 -210 158 -575 408 -629 430 -52 22 -91
18 -186 -19z"/>
<path d="M3895 9643 c-730 -150 -1442 -356 -1985 -573 -354 -142 -875 -386
-912 -426 -54 -61 -98 -502 -98 -989 0 -555 58 -923 225 -1421 209 -624 542
-1187 979 -1656 47 -51 87 -90 89 -87 2 2 12 96 21 209 146 1756 707 3378
1650 4770 62 91 115 171 120 178 9 15 2 14 -89 -5z"/>
<path d="M4210 7720 l0 -1510 1123 0 c730 0 1145 4 1187 11 165 26 324 105
447 223 127 119 205 256 244 423 18 79 21 114 17 226 -4 115 -9 145 -38 229
-40 119 -110 237 -198 329 l-65 69 65 68 c116 121 183 242 219 399 18 79 21
114 17 226 -4 114 -9 145 -37 227 -94 279 -309 480 -600 563 -76 22 -83 22
-1228 25 l-1153 3 0 -1511z m2261 1106 c217 -46 369 -232 369 -451 0 -212
-155 -407 -361 -454 -28 -7 -379 -11 -961 -11 l-918 0 0 465 0 465 903 0 c736
0 914 -3 968 -14z m24 -1320 c228 -61 384 -290 347 -511 -29 -176 -152 -319
-325 -379 -61 -21 -71 -21 -989 -24 l-928 -3 0 466 0 465 923 0 c738 0 932 -3
972 -14z"/>
<path d="M3023 7233 c-138 -372 -321 -1086 -407 -1593 -86 -510 -167 -1336
-136 -1409 20 -50 273 -249 536 -421 196 -129 560 -308 831 -410 353 -133 804
-215 1372 -251 216 -13 1028 -6 1161 10 109 14 243 40 253 50 4 4 -21 27 -55
51 -343 238 -744 557 -1087 864 -205 183 -649 629 -833 836 -464 524 -834
1036 -1167 1615 -51 88 -163 303 -249 477 -86 175 -159 317 -163 318 -3 0 -28
-62 -56 -137z"/>
<path d="M9786 6345 c-578 -267 -1245 -503 -1861 -658 -622 -157 -1183 -244
-1855 -289 -344 -22 -1096 -12 -1384 19 l-59 6 15 -22 c59 -84 332 -386 543
-600 536 -544 971 -908 1530 -1280 225 -150 279 -181 312 -181 57 0 373 125
584 230 457 229 828 498 1199 870 522 522 866 1075 1113 1787 57 162 68 203
54 202 -7 -1 -93 -39 -191 -84z"/>
<path d="M3150 1540 l0 -610 40 0 40 0 0 610 0 610 -40 0 -40 0 0 -610z"/>
<path d="M1086 2004 c-86 -21 -168 -69 -231 -135 -266 -279 -111 -735 273
-801 194 -33 401 72 495 250 l36 67 -70 -3 c-64 -3 -70 -6 -83 -31 -22 -42
-102 -110 -164 -139 -48 -23 -71 -27 -142 -27 -71 0 -94 4 -142 27 -79 37
-142 98 -181 177 -29 59 -32 74 -32 156 0 77 4 98 27 147 37 79 98 142 177
181 57 28 75 32 141 31 101 0 173 -29 248 -99 32 -29 64 -65 71 -79 13 -24 19
-26 82 -26 l67 0 -27 52 c-37 73 -129 169 -199 206 -109 58 -229 74 -346 46z"/>
<path d="M1850 1540 l0 -481 378 3 c358 3 379 4 422 24 100 46 154 134 154
249 0 75 -12 109 -65 176 l-28 36 25 24 c48 44 68 97 68 174 0 115 -54 203
-154 249 -43 20 -64 21 -422 24 l-378 3 0 -481z m756 344 c76 -36 105 -134 62
-208 -44 -74 -53 -76 -395 -76 l-303 0 0 150 0 150 301 0 c257 0 306 -2 335
-16z m4 -423 c55 -29 75 -64 75 -131 0 -67 -20 -102 -75 -131 -32 -17 -62 -19
-337 -19 l-303 0 0 150 0 150 303 0 c275 0 305 -2 337 -19z"/>
<path d="M4954 1860 c-113 -35 -190 -143 -201 -281 -10 -138 45 -256 147 -313
49 -28 64 -31 140 -31 76 0 91 3 140 31 101 57 157 175 147 310 -13 176 -114
283 -271 290 -39 2 -85 -1 -102 -6z m210 -76 c28 -20 51 -48 71 -89 26 -53 30
-71 30 -145 0 -74 -4 -92 -30 -145 -21 -42 -43 -69 -73 -90 -40 -27 -51 -30
-122 -30 -71 0 -82 3 -122 30 -30 21 -52 48 -73 90 -26 53 -30 71 -30 145 0
71 4 94 26 141 27 58 75 103 126 119 15 5 57 8 92 6 50 -3 72 -10 105 -32z"/>
<path d="M6134 1860 c-113 -35 -190 -143 -201 -281 -10 -138 45 -256 147 -313
49 -28 64 -31 140 -31 76 0 91 3 140 31 101 57 157 175 147 310 -13 176 -114
283 -271 290 -39 2 -85 -1 -102 -6z m210 -76 c28 -20 51 -48 71 -89 26 -53 30
-71 30 -145 0 -74 -4 -92 -30 -145 -21 -42 -43 -69 -73 -90 -40 -27 -51 -30
-122 -30 -71 0 -82 3 -122 30 -30 21 -52 48 -73 90 -26 53 -30 71 -30 145 0
71 4 94 26 141 27 58 75 103 126 119 15 5 57 8 92 6 50 -3 72 -10 105 -32z"/>
<path d="M6799 1857 c-87 -33 -135 -80 -176 -172 -12 -29 -17 -67 -17 -135 -1
-101 16 -157 68 -225 36 -47 118 -87 190 -92 91 -8 142 10 199 68 l47 49 0
-55 c0 -52 1 -55 25 -55 l25 0 0 155 0 155 -135 0 -135 0 0 -25 0 -25 105 0
105 0 0 -32 c-1 -78 -64 -158 -143 -179 -111 -30 -211 14 -262 116 -26 53 -30
71 -30 145 0 74 4 92 30 145 40 79 90 115 173 122 53 5 69 2 117 -22 45 -22
61 -37 83 -76 22 -39 32 -49 54 -49 l27 0 -15 44 c-18 51 -62 100 -118 128
-51 26 -166 34 -217 15z"/>
<path d="M3560 1545 l0 -305 30 0 30 0 0 130 0 130 128 0 c113 0 133 3 172 23
118 59 118 245 0 305 -40 20 -58 22 -202 22 l-158 0 0 -305z m325 241 c39 -17
65 -60 65 -111 0 -20 -7 -50 -16 -66 -24 -46 -66 -59 -199 -59 l-115 0 0 125
0 125 115 0 c77 0 127 -5 150 -14z"/>
<path d="M4140 1545 l0 -305 30 0 30 0 0 150 0 150 180 0 180 0 0 -150 0 -150
30 0 30 0 0 305 0 305 -30 0 -30 0 0 -130 0 -130 -180 0 -180 0 0 130 0 130
-30 0 -30 0 0 -305z"/>
<path d="M5390 1825 l0 -25 105 0 105 0 0 -280 0 -280 30 0 30 0 0 280 0 280
105 0 105 0 0 25 0 25 -240 0 -240 0 0 -25z"/>
<path d="M7300 1545 l0 -305 30 0 30 0 0 135 0 135 130 0 c180 0 202 -14 215
-132 16 -148 13 -138 51 -138 32 0 34 2 24 20 -6 11 -14 61 -19 111 -10 103
-28 138 -80 153 l-31 9 40 18 c75 34 104 158 53 228 -11 14 -39 36 -63 49 -41
20 -58 22 -212 22 l-168 0 0 -305z m355 241 c62 -26 86 -117 44 -170 -38 -48
-67 -56 -209 -56 l-130 0 0 120 0 120 130 0 c90 0 141 -4 165 -14z"/>
<path d="M8087 1838 c-3 -7 -53 -132 -112 -278 -59 -146 -114 -277 -121 -292
-14 -28 -14 -28 19 -28 34 0 35 1 70 93 l35 92 142 0 143 0 36 -92 c35 -90 37
-93 67 -93 l32 0 -100 253 c-55 138 -109 276 -120 305 -19 48 -23 52 -53 52
-18 0 -35 -6 -38 -12z m36 -356 c-64 -1 -117 -1 -119 1 -3 2 19 60 108 287 9
22 16 8 68 -130 l58 -155 -115 -3z"/>
<path d="M8480 1545 l0 -305 30 0 30 0 0 130 0 130 128 0 c113 0 133 3 172 23
118 59 118 245 0 305 -40 20 -58 22 -202 22 l-158 0 0 -305z m325 241 c87 -37
87 -185 0 -222 -23 -9 -73 -14 -150 -14 l-115 0 0 125 0 125 115 0 c77 0 127
-5 150 -14z"/>
<path d="M9050 1545 l0 -305 30 0 30 0 0 150 0 150 180 0 180 0 0 -150 0 -150
30 0 30 0 0 305 0 305 -30 0 -30 0 0 -130 0 -130 -180 0 -180 0 0 130 0 130
-30 0 -30 0 0 -305z"/>
<path d="M9740 1670 l120 -180 0 -125 0 -125 30 0 30 0 0 126 0 126 113 166
c62 92 116 173 121 180 5 9 -2 12 -27 12 -34 0 -38 -4 -132 -150 -53 -82 -100
-150 -104 -150 -3 0 -51 68 -105 150 -95 144 -100 150 -133 150 l-33 0 120
-180z"/>
</g>
</svg>
